<svg width="30" height="30" viewBox="0 0 30 30" fill="none" xmlns="http://www.w3.org/2000/svg">
<path fill-rule="evenodd" clip-rule="evenodd" d="M1.875 7.5V26.25C1.875 26.7473 2.07254 27.2242 2.42417 27.5758C2.77581 27.9275 3.25272 28.125 3.75 28.125H26.25C26.7473 28.125 27.2242 27.9275 27.5758 27.5758C27.9275 27.2242 28.125 26.7473 28.125 26.25V7.5H1.875ZM3.75 1.875C2.75544 1.875 1.80161 2.27009 1.09835 2.97335C0.395088 3.67661 0 4.63044 0 5.625L0 26.25C0 27.2446 0.395088 28.1984 1.09835 28.9016C1.80161 29.6049 2.75544 30 3.75 30H26.25C27.2446 30 28.1984 29.6049 28.9016 28.9016C29.6049 28.1984 30 27.2446 30 26.25V5.625C30 4.63044 29.6049 3.67661 28.9016 2.97335C28.1984 2.27009 27.2446 1.875 26.25 1.875H3.75Z" fill="black"/>
<path fill-rule="evenodd" clip-rule="evenodd" d="M6.5625 0C6.81114 0 7.0496 0.0987721 7.22541 0.274587C7.40123 0.450403 7.5 0.68886 7.5 0.9375V1.875C7.5 2.12364 7.40123 2.3621 7.22541 2.53791C7.0496 2.71373 6.81114 2.8125 6.5625 2.8125C6.31386 2.8125 6.0754 2.71373 5.89959 2.53791C5.72377 2.3621 5.625 2.12364 5.625 1.875V0.9375C5.625 0.68886 5.72377 0.450403 5.89959 0.274587C6.0754 0.0987721 6.31386 0 6.5625 0V0ZM23.4375 0C23.6861 0 23.9246 0.0987721 24.1004 0.274587C24.2762 0.450403 24.375 0.68886 24.375 0.9375V1.875C24.375 2.12364 24.2762 2.3621 24.1004 2.53791C23.9246 2.71373 23.6861 2.8125 23.4375 2.8125C23.1889 2.8125 22.9504 2.71373 22.7746 2.53791C22.5988 2.3621 22.5 2.12364 22.5 1.875V0.9375C22.5 0.68886 22.5988 0.450403 22.7746 0.274587C22.9504 0.0987721 23.1889 0 23.4375 0V0Z" fill="black"/>
<path d="M23.4375 11.25H21.5625C21.0447 11.25 20.625 11.6697 20.625 12.1875V14.0625C20.625 14.5803 21.0447 15 21.5625 15H23.4375C23.9553 15 24.375 14.5803 24.375 14.0625V12.1875C24.375 11.6697 23.9553 11.25 23.4375 11.25Z" fill="black"/>
</svg>
