<svg width="30" height="30" viewBox="0 0 30 30" fill="none" xmlns="http://www.w3.org/2000/svg">
<path d="M10.5812 14.1162C11.9975 12.7 14.4675 12.7 15.8837 14.1162L16.7675 15L18.535 13.2325L17.6512 12.3487C16.4725 11.1687 14.9025 10.5175 13.2325 10.5175C11.5625 10.5175 9.9925 11.1687 8.81375 12.3487L6.16125 15C4.99162 16.1734 4.33484 17.7626 4.33484 19.4194C4.33484 21.0761 4.99162 22.6653 6.16125 23.8387C6.74109 24.4194 7.42996 24.8798 8.18827 25.1934C8.94658 25.507 9.75939 25.6677 10.58 25.6662C11.4008 25.6679 12.2139 25.5074 12.9724 25.1937C13.731 24.8801 14.42 24.4196 15 23.8387L15.8837 22.955L14.1162 21.1875L13.2325 22.0712C12.5281 22.7725 11.5746 23.1662 10.5806 23.1662C9.58666 23.1662 8.63316 22.7725 7.92875 22.0712C7.22688 21.3671 6.83276 20.4135 6.83276 19.4194C6.83276 18.4252 7.22688 17.4716 7.92875 16.7675L10.5812 14.1162Z" fill="black"/>
<path d="M15 6.16124L14.1162 7.04499L15.8837 8.81249L16.7675 7.92874C17.4719 7.22748 18.4254 6.83378 19.4193 6.83378C20.4133 6.83378 21.3668 7.22748 22.0712 7.92874C22.7731 8.63283 23.1672 9.58645 23.1672 10.5806C23.1672 11.5748 22.7731 12.5284 22.0712 13.2325L19.4187 15.8837C18.0025 17.3 15.5325 17.3 14.1162 15.8837L13.2325 15L11.465 16.7675L12.3487 17.6512C13.5275 18.8312 15.0975 19.4825 16.7675 19.4825C18.4375 19.4825 20.0075 18.8312 21.1862 17.6512L23.8387 15C25.0083 13.8266 25.6651 12.2374 25.6651 10.5806C25.6651 8.92385 25.0083 7.33464 23.8387 6.16124C22.6656 4.991 21.0763 4.3338 19.4193 4.3338C17.7624 4.3338 16.173 4.991 15 6.16124V6.16124Z" fill="black"/>
</svg>
