<svg width="30" height="30" viewBox="0 0 30 30" fill="none" xmlns="http://www.w3.org/2000/svg">
<path d="M29.1 13.5H24V8.4C24 7.5 23.4 7.5 22.5 7.5C21.6 7.5 21 7.5 21 8.4V13.5H15.9C15 13.5 15 14.1 15 15C15 15.9 15 16.5 15.9 16.5H21V21.6C21 22.5 21.6 22.5 22.5 22.5C23.4 22.5 24 22.5 24 21.6V16.5H29.1C30 16.5 30 15.9 30 15C30 14.1 30 13.5 29.1 13.5ZM11.1 13.5H0.9C0 13.5 0 14.1 0 15C0 15.9 0 16.5 0.9 16.5H11.1C12 16.5 12 15.9 12 15C12 14.1 12 13.5 11.1 13.5V13.5ZM11.1 21H0.9C0 21 0 21.6 0 22.5C0 23.4 0 24 0.9 24H11.1C12 24 12 23.4 12 22.5C12 21.6 12 21 11.1 21V21ZM11.1 6H0.9C0 6 0 6.6 0 7.5C0 8.4 0 9 0.9 9H11.1C12 9 12 8.4 12 7.5C12 6.6 12 6 11.1 6V6Z" fill="black"/>
</svg>
