<svg width="30" height="30" viewBox="0 0 30 30" fill="none" xmlns="http://www.w3.org/2000/svg">
<g clip-path="url(#clip0)">
<path d="M20.4167 3.74925H29.0906L30 -0.000746424H10V20.6243H25L25.9094 16.8743H20.4167C20.1865 16.8743 20 16.6645 20 16.4055V15.468C20 15.209 20.1865 14.9993 20.4167 14.9993H26.3635L27.2729 11.2493H20.4167C20.1865 11.2493 20 11.0395 20 10.7805V9.843C20 9.58402 20.1865 9.37425 20.4167 9.37425H27.7271L28.6365 5.62425H20.4167C20.1865 5.62425 20 5.41449 20 5.1555V4.218C20 3.95902 20.1865 3.74925 20.4167 3.74925ZM8.27084 19.6287L6.92813 15.9221C6.78334 15.5231 6.41772 15.2782 6.03022 15.3209L3.6849 15.5799C2.7849 12.8295 2.76563 9.73343 3.6849 6.92445L6.03022 7.18343C6.41719 7.22621 6.78334 6.9807 6.92813 6.58226L8.27084 2.87562C8.42813 2.44261 8.28126 1.94691 7.92292 1.69964L5.87709 0.287535C5.13074 -0.227504 4.17136 -0.0300433 3.59115 0.700621C-1.2302 6.77093 -1.20051 15.9086 3.70053 21.9403C4.21459 22.5731 5.21719 22.6715 5.8698 22.2215L7.9224 20.8047C8.28126 20.5575 8.42761 20.0623 8.27084 19.6287V19.6287ZM25 22.4993H10C8.15886 22.4993 6.66667 24.178 6.66667 26.2493V28.1243C6.66667 29.1596 7.41303 29.9993 8.33334 29.9993H26.6667C27.587 29.9993 28.3333 29.1596 28.3333 28.1243V26.2493C28.3333 24.178 26.8412 22.4993 25 22.4993ZM17.5 28.1243C16.5797 28.1243 15.8333 27.2846 15.8333 26.2493C15.8333 25.2139 16.5797 24.3743 17.5 24.3743C18.4203 24.3743 19.1667 25.2139 19.1667 26.2493C19.1667 27.2846 18.4203 28.1243 17.5 28.1243Z" fill="black"/>
</g>
<defs>
<clipPath id="clip0">
<rect width="30" height="30" fill="white"/>
</clipPath>
</defs>
</svg>
