<svg width="30" height="30" viewBox="0 0 30 30" fill="none" xmlns="http://www.w3.org/2000/svg">
<g clip-path="url(#clip0)">
<path d="M14.8915 -0.0357766C14.8427 -0.026965 14.7946 -0.0150171 14.7473 -7.38127e-06C14.4868 0.0583792 14.2546 0.205289 14.0903 0.415688C13.926 0.626086 13.8397 0.886954 13.8462 1.15384V2.30768H3.46154C2.54348 2.30768 1.66303 2.67238 1.01386 3.32155C0.364697 3.97071 0 4.85117 0 5.76922L0 20.7692C0 22.68 1.55077 24.2308 3.46154 24.2308H13.8462V24.6635L7.57154 27.8008C7.29428 27.9346 7.08157 28.1732 6.98019 28.4639C6.87882 28.7546 6.89708 29.0737 7.03096 29.351C7.16484 29.6282 7.40338 29.8409 7.6941 29.9423C7.98482 30.0437 8.3039 30.0254 8.58115 29.8915L13.8462 27.2596V27.6923C13.8462 27.9983 13.9677 28.2918 14.1841 28.5082C14.4005 28.7246 14.694 28.8461 15 28.8461C15.306 28.8461 15.5995 28.7246 15.8159 28.5082C16.0323 28.2918 16.1538 27.9983 16.1538 27.6923V27.2596L21.4188 29.8915C21.6961 30.0254 22.0152 30.0437 22.3059 29.9423C22.5966 29.8409 22.8352 29.6282 22.969 29.351C23.1029 29.0737 23.1212 28.7546 23.0198 28.4639C22.9184 28.1732 22.7057 27.9346 22.4285 27.8008L16.1538 24.6635V24.2308H26.5385C28.4492 24.2308 30 22.68 30 20.7692V5.76922C30 4.85117 29.6353 3.97071 28.9861 3.32155C28.337 2.67238 27.4565 2.30768 26.5385 2.30768H16.1538V1.15384C16.1597 0.989759 16.1304 0.826326 16.068 0.674457C16.0056 0.522589 15.9116 0.385783 15.7921 0.273179C15.6726 0.160576 15.5305 0.0747683 15.3752 0.0214892C15.2199 -0.0317898 15.055 -0.0513132 14.8915 -0.0357766V-0.0357766ZM2.30769 5.76922H27.6923V20.7692H2.30769V5.76922ZM24.0865 6.92307C23.8281 6.95086 23.5866 7.0651 23.4012 7.2473L19.6154 11.0342L16.9835 8.39999C16.8574 8.27066 16.7028 8.17272 16.532 8.11405C16.3612 8.05538 16.179 8.03762 16.0001 8.0622C15.8212 8.08678 15.6505 8.15302 15.5019 8.25558C15.3532 8.35813 15.2307 8.49415 15.1442 8.65269L11.7185 14.6388L10.3119 11.1046C10.2436 10.9221 10.1302 10.7599 9.9823 10.6331C9.83437 10.5063 9.65674 10.419 9.46597 10.3793C9.2752 10.3397 9.0775 10.349 8.8913 10.4065C8.70511 10.4639 8.53648 10.5675 8.40115 10.7077L4.93962 14.1692C4.71928 14.3894 4.59544 14.6881 4.59533 14.9996C4.59522 15.3111 4.71886 15.6099 4.93904 15.8302C5.15922 16.0505 5.45791 16.1744 5.7694 16.1745C6.08089 16.1746 6.37967 16.0509 6.6 15.8308L8.79923 13.6315L10.4585 17.7415C10.5368 17.9477 10.6725 18.127 10.8496 18.2584C11.0267 18.3898 11.2377 18.4677 11.4577 18.4829C11.6777 18.498 11.8974 18.4499 12.0908 18.344C12.2843 18.2382 12.4434 18.0792 12.5492 17.8858L16.4077 11.1427L18.7869 13.5231C18.8945 13.6344 19.0234 13.7229 19.166 13.7834C19.3085 13.8438 19.4617 13.875 19.6165 13.875C19.7714 13.875 19.9246 13.8438 20.0671 13.7834C20.2096 13.7229 20.3386 13.6344 20.4462 13.5231L25.0615 8.90768C25.2438 8.73894 25.3668 8.51589 25.4121 8.27167C25.4575 8.02746 25.4228 7.77513 25.3133 7.5522C25.2038 7.32926 25.0252 7.14762 24.8042 7.03427C24.5832 6.92092 24.3315 6.88192 24.0865 6.92307Z" fill="black"/>
</g>
<defs>
<clipPath id="clip0">
<rect width="30" height="30" fill="white"/>
</clipPath>
</defs>
</svg>
