<svg width="30" height="30" viewBox="0 0 30 30" fill="none" xmlns="http://www.w3.org/2000/svg">
<path d="M10.5 4.5H3V25.5H10.5V4.5ZM13.5 4.5V25.5H27V4.5H13.5ZM0 4.5C0 2.85 1.35 1.5 3 1.5H27C27.7956 1.5 28.5587 1.81607 29.1213 2.37868C29.6839 2.94129 30 3.70435 30 4.5V25.5C30 26.2956 29.6839 27.0587 29.1213 27.6213C28.5587 28.1839 27.7956 28.5 27 28.5H3C2.20435 28.5 1.44129 28.1839 0.87868 27.6213C0.316071 27.0587 0 26.2956 0 25.5V4.5ZM4.5 6H9V9H4.5V6ZM4.5 10.5H9V13.5H4.5V10.5ZM4.5 15H9V18H4.5V15Z" fill="black"/>
</svg>
